<svg width="100" height="121" viewBox="0 0 100 121" fill="none" xmlns="http://www.w3.org/2000/svg">
<path d="M49.924 0C55.1338 6.38079 60.8799 12.3065 67.0936 17.7082C62.9533 31.1371 60.7243 45.4043 60.7243 60.192C60.7243 74.9798 62.9533 89.2469 67.0936 102.676C60.8799 108.078 55.1338 114.003 49.924 120.384C44.7143 114.003 38.9681 108.078 32.7544 102.676C36.8948 89.2469 39.1237 74.9798 39.1237 60.192C39.1237 45.4043 36.8948 31.1371 32.7544 17.7082C38.9681 12.3065 44.7142 6.38079 49.924 0Z" fill="#6851FF"/>
<path d="M20.8776 93.3914C14.3004 88.7814 7.32005 84.7073 5.78998e-06 81.2325C2.03055 74.5769 3.12287 67.512 3.12287 60.192C3.12287 52.872 2.03055 45.8072 0 39.1516C7.32005 35.6768 14.3004 31.6026 20.8776 26.9926C23.3926 37.6506 24.7234 48.7659 24.7234 60.192C24.7234 71.6181 23.3926 82.7334 20.8776 93.3914Z" fill="#6851FF"/>
<path d="M75.1246 60.192C75.1246 71.6181 76.4554 82.7335 78.9704 93.3914C85.5476 88.7814 92.528 84.7073 99.848 81.2325C97.8175 74.5769 96.7252 67.512 96.7252 60.192C96.7252 52.872 97.8175 45.8072 99.848 39.1516C92.528 35.6767 85.5476 31.6026 78.9704 26.9926C76.4554 37.6506 75.1246 48.7659 75.1246 60.192Z" fill="#6851FF"/>
</svg>
